<?xml version="1.0" standalone="no"?>
<!DOCTYPE svg PUBLIC "-//W3C//DTD SVG 20010904//EN"
 "http://www.w3.org/TR/2001/REC-SVG-20010904/DTD/svg10.dtd">
<svg version="1.0" xmlns="http://www.w3.org/2000/svg"
 width="512.000000pt" height="512.000000pt" viewBox="0 0 512.000000 512.000000"
 preserveAspectRatio="xMidYMid meet">
<metadata>
Created by potrace 1.14, written by Peter Selinger 2001-2017
</metadata>
<g transform="translate(0.000000,512.000000) scale(0.100000,-0.100000)"
fill="#000000" stroke="none">
<path d="M972 4472 c-37 -11 -91 -71 -98 -109 -4 -19 -7 -72 -8 -118 l-1 -83
-120 -4 c-107 -3 -126 -7 -178 -32 -75 -37 -139 -110 -163 -185 -17 -52 -18
-127 -19 -1126 -1 -841 2 -1082 12 -1128 21 -96 89 -177 183 -221 44 -20 61
-21 725 -26 l680 -5 0 -237 1 -238 -255 -1 c-141 -1 -266 -4 -279 -7 -29 -9
-81 -59 -93 -90 -26 -69 -1 -151 58 -192 l37 -25 843 -3 c770 -2 846 -1 876
14 68 35 104 106 88 175 -10 44 -27 70 -66 101 -29 22 -36 23 -300 26 l-270 3
2 202 c0 111 2 219 2 239 l1 37 678 3 c670 3 678 3 724 25 66 30 133 96 165
162 l27 56 2 545 c1 300 2 559 3 576 1 26 36 65 236 265 129 129 242 249 251
268 20 42 20 100 1 138 -9 15 -53 65 -99 110 -86 83 -120 100 -178 89 -14 -2
-31 -5 -39 -5 -7 -1 -49 -36 -92 -78 -44 -42 -79 -75 -80 -72 0 2 -2 92 -3
199 -3 188 -4 197 -30 251 -34 71 -96 132 -166 162 -45 20 -75 24 -165 26 -60
2 -112 5 -114 7 -3 2 -5 49 -6 103 -2 118 -22 162 -89 192 -39 18 -94 19
-1351 18 -720 -1 -1320 -4 -1333 -7z"/>
</g>
</svg>
